<?xml version="1.0" standalone="no"?>
<!DOCTYPE svg PUBLIC "-//W3C//DTD SVG 20010904//EN"
 "http://www.w3.org/TR/2001/REC-SVG-20010904/DTD/svg10.dtd">
<svg version="1.0" xmlns="http://www.w3.org/2000/svg"
 width="129.000000pt" height="129.000000pt" viewBox="0 0 129.000000 129.000000"
 preserveAspectRatio="xMidYMid meet">
<metadata>
Created by potrace 1.14, written by Peter Selinger 2001-2017
</metadata>
<g transform="translate(0.000000,129.000000) scale(0.100000,-0.100000)"
fill="#000000" stroke="none">
<path d="M573 1248 c-37 -22 -72 -44 -76 -48 -5 -4 -1 -24 7 -45 18 -43 16
-50 -21 -60 -105 -26 -230 -145 -284 -272 -11 -26 -22 -49 -23 -50 -2 -2 -19
4 -39 12 -20 8 -38 15 -41 15 -2 0 -25 -34 -50 -76 l-46 -77 34 -61 c58 -102
56 -101 100 -82 45 19 52 16 61 -24 9 -42 75 -139 126 -186 51 -46 121 -89
162 -99 37 -10 39 -17 21 -61 -19 -44 -20 -42 83 -100 l61 -35 76 46 c42 26
76 49 76 51 0 3 -7 21 -15 40 -18 43 -14 50 25 59 33 7 131 69 174 110 39 38
103 139 111 175 9 39 16 43 59 25 19 -8 37 -15 39 -15 4 0 66 99 86 137 10 19
5 32 -35 98 -25 41 -48 75 -50 75 -3 0 -21 -7 -40 -15 -43 -18 -50 -14 -59 25
-6 28 -66 125 -102 165 -36 40 -103 86 -155 107 -29 12 -56 24 -61 28 -4 4 -1
23 8 43 8 20 15 39 15 41 0 3 -21 17 -47 32 -27 15 -55 33 -63 39 -32 26 -49
23 -117 -17z m36 -357 c15 -40 31 -73 35 -74 4 -1 21 34 39 78 36 89 38 90
114 54 56 -27 125 -96 150 -151 38 -79 38 -79 -60 -117 l-87 -34 47 -20 c27
-11 67 -28 91 -38 l42 -18 -16 -43 c-21 -53 -57 -103 -102 -143 -40 -35 -133
-77 -145 -66 -4 4 -20 39 -35 77 -15 39 -31 70 -37 69 -5 0 -24 -34 -40 -75
-34 -84 -36 -85 -116 -45 -74 37 -137 107 -164 184 l-14 41 42 20 c23 11 60
26 82 33 46 16 47 27 2 43 -18 7 -53 21 -79 32 -47 21 -47 21 -36 54 19 55 76
134 120 164 51 36 120 65 131 55 4 -5 21 -40 36 -80z"/>
</g>
</svg>
