<svg width="166" height="52" viewBox="0 0 166 52" fill="none" xmlns="http://www.w3.org/2000/svg">
<path d="M158 1H8C4.13401 1 1 4.13401 1 8V44C1 47.866 4.13401 51 8 51H158C161.866 51 165 47.866 165 44V8C165 4.13401 161.866 1 158 1Z" fill="black" stroke="#4C4C4C" stroke-width="2"/>
<path d="M58.8802 14.24C58.8802 15.2 58.6402 16.04 58.0402 16.64C57.3202 17.36 56.4802 17.72 55.4002 17.72C54.3202 17.72 53.4802 17.36 52.7602 16.64C52.0402 15.92 51.6802 15.08 51.6802 14C51.6802 12.92 52.0402 12.08 52.7602 11.36C53.4802 10.64 54.3202 10.28 55.4002 10.28C55.8802 10.28 56.3602 10.4 56.8402 10.64C57.3202 10.88 57.6802 11.12 57.9202 11.48L57.3202 12.08C56.8402 11.48 56.2402 11.24 55.4002 11.24C54.6802 11.24 53.9602 11.48 53.4802 12.08C52.8802 12.56 52.6402 13.28 52.6402 14.12C52.6402 14.96 52.8802 15.68 53.4802 16.16C54.0802 16.64 54.6802 17 55.4002 17C56.2402 17 56.8402 16.76 57.4402 16.16C57.8002 15.8 58.0402 15.32 58.0402 14.72H55.4002V13.88H58.8802C58.8802 13.88 58.8802 14.12 58.8802 14.24Z" fill="white" stroke="white" stroke-width="0.5"/>
<path d="M64.4002 11.2401H61.1602V13.5201H64.1602V14.3601H61.1602V16.6401H64.4002V17.6001H60.2002V10.4001H64.4002V11.2401Z" fill="white" stroke="white" stroke-width="0.5"/>
<path d="M68.3604 17.6001H67.4004V11.2401H65.3604V10.4001H70.4004V11.2401H68.3604V17.6001Z" fill="white" stroke="white" stroke-width="0.5"/>
<path d="M73.8804 17.6001V10.4001H74.8404V17.6001H73.8804Z" fill="white" stroke="white" stroke-width="0.5"/>
<path d="M78.9204 17.6001H77.9604V11.2401H75.9204V10.4001H80.8404V11.2401H78.8004V17.6001H78.9204Z" fill="white" stroke="white" stroke-width="0.5"/>
<path d="M90.32 16.64C89.6 17.36 88.76 17.72 87.68 17.72C86.6 17.72 85.76 17.36 85.04 16.64C84.32 15.92 83.96 15.08 83.96 14C83.96 12.92 84.32 12.08 85.04 11.36C85.76 10.64 86.6 10.28 87.68 10.28C88.76 10.28 89.6 10.64 90.32 11.36C91.04 12.08 91.4 12.92 91.4 14C91.4 15.08 91.04 15.92 90.32 16.64ZM85.76 16.04C86.24 16.52 86.96 16.88 87.68 16.88C88.4 16.88 89.12 16.64 89.6 16.04C90.08 15.56 90.44 14.84 90.44 14C90.44 13.16 90.2 12.44 89.6 11.96C89.12 11.48 88.4 11.12 87.68 11.12C86.96 11.12 86.24 11.36 85.76 11.96C85.28 12.44 84.92 13.16 84.92 14C84.92 14.84 85.16 15.56 85.76 16.04Z" fill="white" stroke="white" stroke-width="0.5"/>
<path d="M92.7202 17.6001V10.4001H93.8002L97.2802 16.0401V14.6001V10.4001H98.2402V17.6001H97.2802L93.5602 11.7201V13.1601V17.6001H92.7202Z" fill="white" stroke="white" stroke-width="0.5"/>
<path d="M83.7198 28.16C80.8398 28.16 78.5598 30.32 78.5598 33.32C78.5598 36.2 80.8398 38.48 83.7198 38.48C86.5998 38.48 88.8798 36.32 88.8798 33.32C88.8798 30.2 86.5998 28.16 83.7198 28.16ZM83.7198 36.32C82.1598 36.32 80.8398 35 80.8398 33.2C80.8398 31.4 82.1598 30.08 83.7198 30.08C85.2798 30.08 86.5998 31.28 86.5998 33.2C86.5998 35 85.2798 36.32 83.7198 36.32ZM72.5598 28.16C69.6798 28.16 67.3998 30.32 67.3998 33.32C67.3998 36.2 69.6798 38.48 72.5598 38.48C75.4398 38.48 77.7198 36.32 77.7198 33.32C77.7198 30.2 75.4398 28.16 72.5598 28.16ZM72.5598 36.32C70.9998 36.32 69.6798 35 69.6798 33.2C69.6798 31.4 70.9998 30.08 72.5598 30.08C74.1198 30.08 75.4398 31.28 75.4398 33.2C75.4398 35 74.1198 36.32 72.5598 36.32ZM59.2398 29.72V31.88H64.3998C64.2798 33.08 63.7998 34.04 63.1998 34.64C62.4798 35.36 61.2798 36.2 59.2398 36.2C55.9998 36.2 53.5998 33.68 53.5998 30.44C53.5998 27.2 56.1198 24.68 59.2398 24.68C60.9198 24.68 62.2398 25.4 63.1998 26.24L64.7598 24.68C63.4398 23.48 61.7598 22.52 59.3598 22.52C55.0398 22.52 51.3198 26.12 51.3198 30.44C51.3198 34.76 55.0398 38.36 59.3598 38.36C61.7598 38.36 63.4398 37.64 64.8798 36.08C66.3198 34.64 66.7998 32.6 66.7998 31.04C66.7998 30.56 66.7998 30.08 66.6798 29.72H59.2398ZM113.72 31.4C113.24 30.2 112.04 28.16 109.4 28.16C106.76 28.16 104.6 30.2 104.6 33.32C104.6 36.2 106.76 38.48 109.64 38.48C111.92 38.48 113.36 37.04 113.84 36.2L112.16 35C111.56 35.84 110.84 36.44 109.64 36.44C108.44 36.44 107.72 35.96 107.12 34.88L113.96 32L113.72 31.4ZM106.76 33.08C106.76 31.16 108.32 30.08 109.4 30.08C110.24 30.08 111.08 30.56 111.32 31.16L106.76 33.08ZM101.12 38H103.4V23H101.12V38ZM97.5198 29.24C96.9198 28.64 95.9598 28.04 94.7598 28.04C92.2398 28.04 89.8398 30.32 89.8398 33.2C89.8398 36.08 92.1198 38.24 94.7598 38.24C95.9598 38.24 96.9198 37.64 97.3998 37.04H97.5198V37.76C97.5198 39.68 96.4398 40.76 94.7598 40.76C93.4398 40.76 92.4798 39.8 92.2398 38.96L90.3198 39.8C90.9198 41.12 92.3598 42.8 94.8798 42.8C97.5198 42.8 99.6798 41.24 99.6798 37.52V28.4H97.5198V29.24ZM94.8798 36.32C93.3198 36.32 91.9998 35 91.9998 33.2C91.9998 31.4 93.3198 30.08 94.8798 30.08C96.4398 30.08 97.6398 31.4 97.6398 33.2C97.6398 35 96.4398 36.32 94.8798 36.32ZM124.16 23H118.76V38H121.04V32.36H124.16C126.68 32.36 129.08 30.56 129.08 27.68C129.08 24.8 126.68 23 124.16 23ZM124.28 30.2H121.04V25.04H124.28C125.96 25.04 126.92 26.48 126.92 27.56C126.8 28.88 125.84 30.2 124.28 30.2ZM138.08 28.04C136.4 28.04 134.72 28.76 134.12 30.32L136.16 31.16C136.64 30.32 137.36 30.08 138.2 30.08C139.4 30.08 140.48 30.8 140.6 32V32.12C140.24 31.88 139.28 31.52 138.32 31.52C136.16 31.52 134 32.72 134 34.88C134 36.92 135.8 38.24 137.72 38.24C139.28 38.24 140 37.52 140.6 36.8H140.72V38H142.88V32.24C142.64 29.6 140.6 28.04 138.08 28.04ZM137.84 36.32C137.12 36.32 136.04 35.96 136.04 35C136.04 33.8 137.36 33.44 138.44 33.44C139.4 33.44 139.88 33.68 140.48 33.92C140.24 35.36 139.04 36.32 137.84 36.32ZM150.44 28.4L147.92 34.88H147.8L145.16 28.4H142.76L146.72 37.52L144.44 42.56H146.72L152.84 28.4H150.44ZM130.28 38H132.56V23H130.28V38Z" fill="white"/>
<path d="M14.4799 11C14.1199 11.36 13.8799 11.96 13.8799 12.68V39.2C13.8799 39.92 14.1199 40.52 14.4799 40.88L14.5999 41L29.4799 26.12V26V25.88L14.4799 11Z" fill="url(#paint0_linear)"/>
<path d="M34.4 31.16L29.48 26.24V26V25.88L34.4 20.96L34.52 21.08L40.4 24.44C42.08 25.4 42.08 26.96 40.4 27.92L34.4 31.16Z" fill="url(#paint1_linear)"/>
<path d="M34.52 31.04L29.48 26L14.48 41C15.08 41.6 15.92 41.6 17 41.12L34.52 31.04Z" fill="url(#paint2_linear)"/>
<path d="M34.52 20.9599L17 10.9999C15.92 10.3999 15.08 10.5199 14.48 11.1199L29.48 25.9999L34.52 20.9599Z" fill="url(#paint3_linear)"/>
<path opacity="0.2" d="M34.4 30.9199L17 40.7599C16.04 41.3599 15.2 41.2399 14.6 40.7599L14.48 40.8799L14.6 40.9999C15.2 41.4799 16.04 41.5999 17 40.9999L34.4 30.9199Z" fill="black"/>
<path opacity="0.12" d="M14.48 40.7601C14.12 40.4001 14 39.8001 14 39.0801V39.2001C14 39.9201 14.24 40.5201 14.6 40.8801V40.7601H14.48Z" fill="black"/>
<path opacity="0.12" d="M40.3999 27.56L34.3999 30.92L34.5199 31.04L40.3999 27.68C41.2399 27.2 41.5999 26.6 41.5999 26C41.5999 26.6 41.1199 27.08 40.3999 27.56Z" fill="black"/>
<path opacity="0.25" d="M17 11.12L40.4 24.44C41.12 24.92 41.6 25.4 41.6 26C41.6 25.4 41.24 24.8 40.4 24.32L17 11C15.32 10.04 14 10.88 14 12.8V12.92C14 11 15.32 10.16 17 11.12Z" fill="white"/>
<defs>
<linearGradient id="paint0_linear" x1="23.432" y1="12.4516" x2="10.6398" y2="25.2439" gradientUnits="userSpaceOnUse">
<stop stop-color="#00A0FF"/>
<stop offset="0.00657445" stop-color="#00A1FF"/>
<stop offset="0.2601" stop-color="#00BEFF"/>
<stop offset="0.5122" stop-color="#00D2FF"/>
<stop offset="0.7604" stop-color="#00DFFF"/>
<stop offset="1" stop-color="#00E3FF"/>
</linearGradient>
<linearGradient id="paint1_linear" x1="42.6013" y1="26.0016" x2="13.565" y2="26.0016" gradientUnits="userSpaceOnUse">
<stop stop-color="#FFE000"/>
<stop offset="0.4087" stop-color="#FFBD00"/>
<stop offset="0.7754" stop-color="#FFA500"/>
<stop offset="1" stop-color="#FF9C00"/>
</linearGradient>
<linearGradient id="paint2_linear" x1="31.7924" y1="30.7682" x2="10.0041" y2="52.5565" gradientUnits="userSpaceOnUse">
<stop stop-color="#FF3A44"/>
<stop offset="1" stop-color="#C31162"/>
</linearGradient>
<linearGradient id="paint3_linear" x1="10.7567" y1="8.80703" x2="20.4526" y2="18.5028" gradientUnits="userSpaceOnUse">
<stop stop-color="#32A071"/>
<stop offset="0.0685" stop-color="#2DA771"/>
<stop offset="0.4762" stop-color="#15CF74"/>
<stop offset="0.8009" stop-color="#06E775"/>
<stop offset="1" stop-color="#00F076"/>
</linearGradient>
</defs>
</svg>
