<?xml version="1.0" encoding="utf-8"?>
<!-- Generator: Adobe Illustrator 24.2.3, SVG Export Plug-In . SVG Version: 6.00 Build 0)  -->
<svg version="1.1" id="Layer_1" xmlns="http://www.w3.org/2000/svg" xmlns:xlink="http://www.w3.org/1999/xlink" x="0px" y="0px"
	 viewBox="0 0 24 24" style="enable-background:new 0 0 24 24;" xml:space="preserve">
<path d="M23.927,13.807L20.3,5.268c0.883-0.351,1.663-1.148,2.354-1.855c0.098-0.1,0.193-0.197,0.291-0.297
	c0.328-0.383,0.283-0.962-0.1-1.29C22.5,1.529,21.999,1.53,21.648,1.832L20.59,2.885c-0.997,0.995-2.533,1.28-3.82,0.711
	l-2.633-1.188c-1.358-0.602-2.916-0.603-4.274,0L7.231,3.596C5.945,4.166,4.406,3.879,3.409,2.885L2.346,1.825
	C2.16,1.666,1.92,1.593,1.679,1.608C1.436,1.626,1.214,1.739,1.055,1.925C0.759,2.27,0.759,2.771,1.063,3.125
	C1.201,3.258,1.343,3.4,1.487,3.546c0.65,0.653,1.383,1.389,2.217,1.722l-3.632,8.539c-0.158,0.372-0.051,0.81,0.261,1.067
	c2.631,2.16,6.451,2.16,9.081,0c0.312-0.257,0.419-0.695,0.261-1.067L6.247,5.71c0.96-0.048,2.048-0.556,3.102-1.048
	c0.622-0.29,1.213-0.565,1.735-0.725v16.629H8.16c-0.505,0-0.916,0.411-0.916,0.915s0.411,0.915,0.916,0.915h7.68
	c0.505,0,0.915-0.411,0.915-0.915s-0.411-0.915-0.915-0.915h-2.925V3.935c0.534,0.161,1.132,0.44,1.762,0.734
	c1.044,0.488,2.122,0.99,3.076,1.037l-3.428,8.101c-0.158,0.372-0.051,0.81,0.261,1.067c2.63,2.158,6.45,2.158,9.08,0
	C23.979,14.617,24.086,14.179,23.927,13.807z M21.957,13.855c-1.731,1.086-3.931,1.085-5.661,0l2.83-6.663L21.957,13.855z
	 M7.704,13.855c-1.73,1.085-3.931,1.086-5.661,0l2.831-6.663L7.704,13.855z"/>
</svg>
