<?xml version="1.0" encoding="utf-8"?>
<svg viewBox="0 0 48 48" fill="white" xmlns="http://www.w3.org/2000/svg" class=""><path d="M24 47.2409C10.7352 47.2409 7.30435 46.5924 4.36364 43.6349C1.40711 40.7091 0.758893 37.3245 0.758893 24.0079C0.758893 10.7387 1.40711 7.32257 4.36364 4.36507C7.28854 1.40758 10.7352 0.759143 24 0.759143C37.2648 0.759143 40.6957 1.40758 43.6364 4.36507C46.5929 7.30675 47.2411 10.6913 47.2411 24.0079C47.2411 37.3245 46.5929 40.7091 43.6364 43.6507C40.6957 46.6082 37.249 47.2409 24 47.2409ZM24 48C37.4387 48 41.0593 47.3199 44.1897 44.1885C47.336 41.0412 48 37.4353 48 23.9921C48 10.5489 47.336 6.95881 44.1897 3.79572C41.0435 0.680066 37.4229 0 24 0C10.5613 0 6.94071 0.680066 3.81028 3.81153C0.679842 6.95881 0 10.5647 0 24.0079C0 37.4511 0.664032 41.0412 3.81028 44.2043C6.94071 47.3199 10.5613 48 24 48Z"></path><path d="M22.9718 40.5038C21.2168 39.1753 19.952 37.1825 19.5251 34.8734H13.8809V10.5492C16.9006 12.0675 19.0824 15.3888 19.3196 18.8365L20.1733 25.6688L19.7623 25.6214C18.8611 25.6214 18.0706 26.4754 18.0706 27.3136C18.0706 28.1044 18.6714 28.7687 19.4619 28.9426L20.4896 29.1799C22.1813 25.9693 23.1457 22.822 23.1457 19.738C23.1457 16.9545 22.782 14.171 22.7188 11.3242C22.7188 10.0589 23.2089 8.90441 23.9836 8.00293C24.7741 8.90441 25.2484 10.0589 25.2484 11.3242C25.2484 14.171 24.8216 16.9545 24.8216 19.738C24.8216 22.822 25.786 25.9693 27.4777 29.1799L28.5054 28.9426C29.2959 28.7687 29.8967 28.0886 29.8967 27.3136C29.8967 26.4596 29.1062 25.6214 28.205 25.6214L27.7781 25.6846L28.6318 18.8524C29.0587 15.4046 31.0508 12.0675 34.0706 10.565V34.8893H28.4421C28.0152 37.1825 26.8137 39.2543 24.9955 40.5196C24.5686 40.8201 24.205 41.1838 23.9678 41.6741C23.7465 41.1838 23.3828 40.8201 22.9718 40.5038ZM16.5528 26.4754C16.7899 25.5739 17.454 24.7832 18.3077 24.2929L17.6437 18.6626C17.4065 16.907 16.6793 15.3413 15.5884 14.0603V26.4596H16.5528V26.4754ZM19.3986 33.1812C19.3986 32.3272 19.5251 31.5522 19.699 30.7614L18.9085 30.5716C17.7544 30.2079 16.8532 29.3064 16.5528 28.1519H15.5884V33.1812H19.3986ZM23.1457 33.1812C23.1457 32.1532 22.3552 31.2517 21.3275 31.1252C21.1536 31.7894 21.0271 32.4537 21.0271 33.1812H23.1457ZM23.1457 34.8893H21.2643C21.5647 36.2178 22.2287 37.4356 23.1457 38.4636V34.8893ZM25.8018 29.6227C25.0745 28.2942 24.4105 26.9024 23.9836 25.4474C23.5567 26.9024 22.8927 28.2942 22.1654 29.6227C22.8927 29.7967 23.4935 30.287 23.9836 30.8405C24.4737 30.287 25.0745 29.7967 25.8018 29.6227ZM26.956 33.1812C26.956 32.4537 26.8295 31.7894 26.6556 31.1252C25.6279 31.2517 24.8374 32.1532 24.8374 33.1812H26.956ZM26.7188 34.8893H24.8374V38.4636C25.7544 37.4197 26.4184 36.2178 26.7188 34.8893ZM32.3947 33.1812V28.1519H31.4303C31.1299 29.3064 30.2129 30.2079 29.0745 30.5716L28.284 30.7614C28.4579 31.5522 28.5844 32.3272 28.5844 33.1812H32.3947ZM32.3947 26.4754V14.0603C31.3038 15.3255 30.5133 16.907 30.3394 18.6626L29.6753 24.2929C30.5291 24.7832 31.1931 25.5581 31.4303 26.4754H32.3947Z"></path></svg>
