<?xml version="1.0" encoding="utf-8"?>
<!-- Generator: Adobe Illustrator 24.2.3, SVG Export Plug-In . SVG Version: 6.00 Build 0)  -->
<svg version="1.1" id="Layer_1" xmlns="http://www.w3.org/2000/svg" xmlns:xlink="http://www.w3.org/1999/xlink" x="0px" y="0px"
	 viewBox="0 0 24 24" style="enable-background:new 0 0 24 24;" xml:space="preserve">
<path d="M12,23.606c-0.141,0-0.282-0.03-0.413-0.089C6.104,21.031,0.5,16.773,0.5,4.029c0-0.317,0.151-0.616,0.406-0.805
	C1.161,3.036,1.491,2.98,1.794,3.073C2.98,3.439,3.859,3.594,4.731,3.594c2.417,0,4.753-0.962,6.577-2.71
	c0.387-0.37,0.997-0.37,1.384,0c1.824,1.748,4.16,2.71,6.577,2.71c0.872,0,1.75-0.156,2.937-0.521
	c0.304-0.093,0.633-0.038,0.889,0.151C23.349,3.413,23.5,3.712,23.5,4.029c0,12.744-5.604,17.002-11.087,19.488
	C12.282,23.576,12.141,23.606,12,23.606z M2.521,5.338C2.859,15.6,7.211,19.248,12,21.505c4.789-2.257,9.141-5.905,9.479-16.167
	c-0.668,0.147-1.417,0.257-2.21,0.257c-2.636,0-5.185-0.935-7.269-2.651c-2.084,1.715-4.633,2.65-7.269,2.65
	C3.938,5.594,3.189,5.485,2.521,5.338z"/>
<path d="M11.192,15.529c-0.256,0-0.512-0.098-0.707-0.293l-2.423-2.423c-0.391-0.39-0.391-1.023,0-1.414s1.023-0.391,1.414,0
	l1.716,1.716l4.139-4.139c0.391-0.391,1.023-0.391,1.414,0s0.391,1.023,0,1.414l-4.846,4.846
	C11.704,15.431,11.448,15.529,11.192,15.529z"/>
</svg>
